# AST/ASF file generated using VICON BodyLanguage
# -----------------------------------------------
:version 1.10
:name VICON
:units
  mass 1.0
  length 0.45
  angle deg
:documentation
   .ast/.asf automatically generated from VICON data using
   VICON BodyBuilder and BodyLanguage model FoxedUp or BRILLIANT.MOD
:root
   order TX TY TZ RX RY RZ
   axis XYZ
   position 0 0 0  
   orientation 0 0 0 
:bonedata
  begin
     id 1 
     name lhipjoint
     direction 0.710188 -0.616876 0.339259 
     length 2.5669 
     axis 0 0 0  XYZ
  end
  begin
     id 2 
     name lfemur
     direction 0.34202 -0.939693 0  
     length 7.12796  
     axis 0 0 20  XYZ
    dof rx ry rz
    limits (-160.0 20.0)
           (-70.0 70.0)
           (-60.0 70.0)
  end
  begin
     id 3 
     name ltibia
     direction 0.34202 -0.939693 0   
     length 7.58108   
     axis 0 0 20   XYZ
    dof rx
    limits (-10.0 170.0)
  end
  begin
     id 4 
     name lfoot
     direction 0.0669471 -0.183936 0.980656   
     length 2.17365   
     axis -90 7.62852e-016 20   XYZ
    dof rx rz
    limits (-45.0 90.0)
           (-70.0 20.0)
  end
  begin
     id 5 
     name ltoes
     direction 1.53508e-011 -4.21705e-011 1   
     length 1.09427   
     axis -90 7.62852e-016 20   XYZ
    dof rx
    limits (-90.0 20.0)
  end
  begin
     id 6 
     name rhipjoint
     direction -0.700191 -0.625589 0.34405   
     length 2.53115  
     axis 0 0 0  XYZ 
  end
  begin
     id 7 
     name rfemur
     direction -0.34202 -0.939693 0   
     length 7.33006   
     axis 0 0 -20   XYZ
    dof rx ry rz
    limits (-160.0 20.0)
           (-70.0 70.0)
           (-70.0 60.0)
  end
  begin
     id 8 
     name rtibia
     direction -0.34202 -0.939693 0   
     length 7.64926   
     axis 0 0 -20   XYZ
    dof rx
    limits (-10.0 170.0)
 end
 begin
     id 9 
     name rfoot
     direction -0.0688927 -0.189281 0.979503   
     length 2.20493  
     axis -90 -7.62852e-016 -20   XYZ
    dof rx rz
    limits (-45.0 90.0)
           (-20.0 70.0)
  end
  begin
     id 10 
     name rtoes
     direction -1.53567e-011 -4.21933e-011 1   
     length 1.10919   
     axis -90 -7.62852e-016 -20   XYZ
    dof rx
    limits (-90.0 20.0)
  end
  begin
     id 11 
     name lowerback
     direction -0.0167868 0.989873 -0.140959   
     length 2.14596   
     axis 0 0 0   XYZ
    dof rx ry rz
    limits (-20.0 45.0)
           (-30.0 30.0)
           (-30.0 30.0)
  end
  begin
     id 12 
     name upperback
     direction 0.0129109 0.998033 0.0613525   
     length 2.10457   
     axis 0 0 0   XYZ
    dof rx ry rz
    limits (-20.0 45.0)
           (-30.0 30.0)
           (-30.0 30.0)
  end
  begin
     id 13 
     name thorax
     direction 0.0177047 0.991119 0.131797   
     length 2.17652   
     axis 0 0 0   XYZ
    dof rx ry rz
    limits (-20.0 45.0)
           (-30.0 30.0)
           (-30.0 30.0)
  end
  begin
     id 14 
     name lowerneck
     direction -0.0336893 0.997548 0.0613464   
     length 1.8912   
     axis 0 0 0   XYZ
    dof rx ry rz
    limits (-20.0 45.0)
           (-30.0 30.0)
           (-30.0 30.0)
  end
  begin
     id 15 
     name upperneck
     direction 0.0435909 0.997179 -0.0611028   
     length 1.8829   
     axis 0 0 0   XYZ
    dof rx ry rz
    limits (-20.0 45.0)
           (-30.0 30.0)
           (-30.0 30.0)
  end
  begin
     id 16
     name head
     direction 0.0175076 0.999444 -0.0283782  
     length 1.93197  
     axis 0 0 0   XYZ
    dof rx ry rz
    limits (-20.0 45.0)
           (-30.0 30.0)
           (-30.0 30.0)
  end
  begin
     id 17 
     name lclavicle
     direction 0.919164 0.389875 0.0559876  
     length 3.60004  
     axis 0 0 0   XYZ
    dof ry rz
    limits (-20.0 10.0)
           (0.0 20.0)
  end
  begin
     id 18 
     name lhumerus
     direction 1 -4.48958e-011 6.89191e-027   
     length 5.43301   
     axis 180 -30 -90   XYZ
    dof rx ry rz
    limits (-60.0 90.0)
           (-90.0 90.0)
           (-90.0 90.0)
  end
  begin
     id 19
     name lradius
     direction 1 -4.4897e-011 3.24727e-027   
     length 3.15936   
     axis 180 -30 -90   XYZ
    dof rx
    limits (-10.0 170.0)
  end
  begin
     id 20
     name lwrist
     direction 1 -4.4897e-011 9.00228e-027   
     length 1.57968   
     axis -6.29373e-015 90 90   XYZ
    dof ry
    limits (-180.0 0.0)
 end
  begin
     id 21 
     name lhand
     direction 1 -4.48968e-011 1.80042e-026   
     length 0.712827   
     axis -1.14882e-014 90 90   XYZ
    dof rx rz
    limits (-90.0 90.0)
           (-45.0 45.0)
  end
  begin
     id 22 
     name lfingers
     direction 1 -4.49019e-011 3.60267e-026   
     length 0.574699   
     axis -2.29769e-014 90 90   XYZ
    dof rx
    limits (0.0 90.0)
  end
  begin
     id 23
     name lthumb
     direction 0.707107 -6.3498e-011 0.707107   
     length 0.825157   
     axis -90 45 5.37419e-014   XYZ
    dof rx rz
    limits (-45.0 45.0)
           (-45.0 45.0)
  end
  begin
     id 24 
     name rclavicle
     direction -0.890334 0.455305 -0.00132111   
     length 3.51494  
     axis 0 0 0   XYZ 
    dof ry rz
    limits (-10.0 20.0)
           (-20.0 0.0)
  end
  begin
     id 25 
     name rhumerus
     direction -1 -4.48967e-011 5.07175e-028  
     length 5.34194   
     axis 180 30 90   XYZ
    dof rx ry rz
    limits (-90.0 60.0)
           (-90.0 90.0)
           (-90.0 90.0)
  end
  begin
     id 26 
     name rradius
     direction -1 -4.48955e-011 3.30467e-027   
     length 3.19351   
     axis 180 30 90   XYZ
    dof rx
    limits (-10.0 170.0)
  end
  begin
     id 27 
     name rwrist
     direction -1 -4.48968e-011 9.00208e-027   
     length 1.59676   
     axis -6.29373e-015 -90 -90   XYZ
    dof ry
    limits (-180.0 0.0)
  end
  begin
     id 28
     name rhand
     direction -1 -4.49e-011 1.80099e-026   
     length 0.743862   
     axis -1.14882e-014 -90 -90   XYZ
    dof rx rz
    limits (-90.0 90.0)
           (-45.0 45.0)
  end
  begin
     id 29
     name rfingers
     direction -1 -4.49009e-011 3.6023e-026   
     length 0.599721   
     axis -2.29769e-014 -90 -90   XYZ
    dof rx
    limits (0.0 90.0)
  end
  begin
     id 30
     name rthumb
     direction -0.707107 -6.35025e-011 0.707107   
     length 0.861083   
     axis -90 -45 -5.37419e-014   XYZ
    dof rx rz
    limits (-45.0 45.0)
           (-45.0 45.0)
  end
:hierarchy
  begin
    root lhipjoint rhipjoint lowerback
    lhipjoint lfemur
    lfemur ltibia
    ltibia lfoot
    lfoot ltoes
    rhipjoint rfemur
    rfemur rtibia
    rtibia rfoot
    rfoot rtoes
    lowerback upperback
    upperback thorax
    thorax lowerneck lclavicle rclavicle
    lowerneck upperneck
    upperneck head
    lclavicle lhumerus
    lhumerus lradius
    lradius lwrist
    lwrist lhand lthumb
    lhand lfingers
    rclavicle rhumerus
    rhumerus rradius
    rradius rwrist
    rwrist rhand rthumb
    rhand rfingers
  end

#!OML:ASF H:\Martial Arts Walks\Project 1\Capture day 1\Session 1\male.ASF
:FULLY-SPECIFIED
:DEGREES
47
root -2.7844 13.8911 -35.8223 8.67189 -23.1089 -11.3007
lowerback 8.58378 2.53569 3.3992
upperback -1.55483 3.94866 3.20314
thorax -6.45232 1.87232 0.897598
lowerneck -6.87959 0.859327 -2.64774
upperneck 13.7546 0.956136 3.64153
head 5.23253 0.565901 1.63158
rclavicle -2.33572e-014 2.38542e-015
rhumerus -40.737 19.8233 -80.5104
rradius 101.322
rwrist 13.6265
rhand -26.6921 -28.4218
rfingers 7.12502
rthumb -0.122673 -58.4015
lclavicle -2.33572e-014 2.38542e-015
lhumerus -18.6325 -12.3795 81.6479
lradius 93.3718
lwrist 3.72208
lhand -34.5289 13.0876
lfingers 7.12502
lthumb -7.69007 42.9278
rfemur 10.2678 -4.30167 13.0242
rtibia 39.7223
rfoot -31.4171 -30.9053
rtoes -34.8846
lfemur -66.8976 29.3284 -10.7024
ltibia 81.477
lfoot -15.4341 3.06269
ltoes -3.04324
48
root -2.78175 13.8857 -35.8224 8.82154 -23.1991 -11.4672
lowerback 8.7548 2.53237 3.48248
upperback -1.55508 3.96569 3.24596
thorax -6.54804 1.87635 0.885951
lowerneck -6.8792 0.926642 -2.61485
upperneck 13.555 1.07036 3.48389
head 5.16838 0.613091 1.58225
rclavicle -7.49915e-014 1.70955e-014
rhumerus -39.8847 20.3653 -80.3992
rradius 101.166
rwrist 13.0985
rhand -26.6263 -28.279
rfingers 7.12502
rthumb -0.0591275 -58.2588
lclavicle -7.49915e-014 1.70955e-014
lhumerus -18.8197 -12.074 81.2644
lradius 93.7251
lwrist 3.40731
lhand -34.4975 12.0336
lfingers 7.12502
lthumb -7.65977 41.8749
rfemur 10.1354 -4.29325 13.1101
rtibia 39.726
rfoot -31.188 -31.0297
rtoes -35.261
lfemur -67.3434 29.5635 -10.803
ltibia 81.8162
lfoot -15.2307 3.26571
ltoes -1.76049
49
root -2.77838 13.8765 -35.8215 8.97663 -23.329 -11.6232
lowerback 8.90897 2.53859 3.52922
upperback -1.55873 3.99202 3.30459
thorax -6.64138 1.88668 0.910599
lowerneck -6.77432 1.00703 -2.6679
upperneck 13.2919 1.20339 3.38208
head 5.06546 0.668294 1.56414
rclavicle 4.71617e-014 7.15625e-015
rhumerus -38.9822 21.033 -80.2298
rradius 101.089
rwrist 12.9932
rhand -26.6538 -28.1722
rfingers 7.12502
rthumb -0.0857393 -58.152
lclavicle 4.71617e-014 7.15625e-015
lhumerus -18.9258 -11.6593 80.8932
lradius 93.9924
lwrist 3.16248
lhand -34.4103 11.2258
lfingers 7.12502
lthumb -7.57557 41.0701
rfemur 10.0011 -4.23375 13.168
rtibia 39.7426
rfoot -31.1841 -30.9747
rtoes -35.5995
lfemur -67.9344 29.9216 -11.1229
ltibia 82.1904
lfoot -14.7411 3.71664
ltoes -0.970164
50
root -2.77533 13.8734 -35.819 9.15446 -23.5033 -11.7558
lowerback 9.03926 2.59881 3.54933
upperback -1.53497 4.08199 3.3197
thorax -6.68999 1.9293 0.89682
lowerneck -6.69181 1.05348 -2.70383
upperneck 12.945 1.28408 3.32405
head 4.94217 0.702259 1.55285
rclavicle 3.95085e-015 1.09332e-014
rhumerus -37.9629 21.5881 -80.0194
rradius 101.076
rwrist 13.4353
rhand -27 -28.2188
rfingers 7.12502
rthumb -0.420129 -58.1981
lclavicle 3.95085e-015 1.09332e-014
lhumerus -19.0334 -11.3435 80.4541
lradius 94.3386
lwrist 2.99917
lhand -34.3621 10.5417
lfingers 7.12502
lthumb -7.52912 40.3877
rfemur 9.82063 -4.16353 13.1944
rtibia 39.7624
rfoot -31.1189 -30.9631
rtoes -35.8592
lfemur -68.6545 30.3915 -11.6159
ltibia 82.5906
lfoot -14.1097 4.33056
ltoes -0.258507
51
root -2.77211 13.8715 -35.8154 9.32361 -23.6911 -11.8418
lowerback 9.23584 2.69459 3.50124
upperback -1.55029 4.21739 3.3231
thorax -6.82171 1.99504 0.897735
lowerneck -6.56694 1.06633 -2.77569
upperneck 12.5885 1.31793 3.2976
head 4.80996 0.713544 1.55395
rclavicle 3.98563e-014 -6.55989e-015
rhumerus -36.8166 22.1283 -79.7554
rradius 101.008
rwrist 14.3433
rhand -27.0526 -28.0931
rfingers 7.12502
rthumb -0.470913 -58.0723
lclavicle 3.98563e-014 -6.55989e-015
lhumerus -19.1876 -11.029 80.0443
lradius 94.6367
lwrist 2.99609
lhand -34.2646 10.1478
lfingers 7.12502
lthumb -7.43495 39.9972
rfemur 9.62013 -4.14326 13.1403
rtibia 39.7792
rfoot -31.0333 -30.9177
rtoes -35.8707
lfemur -69.4091 30.8956 -12.276
ltibia 82.9816
lfoot -13.5206 5.17921
ltoes 0.522424
52
root -2.77019 13.8702 -35.812 9.4719 -23.9314 -11.8857
lowerback 9.49774 2.84007 3.38855
upperback -1.50438 4.40799 3.2701
thorax -6.92547 2.08979 0.864216
lowerneck -6.72746 1.04838 -2.8256
upperneck 12.2761 1.30667 3.32626
head 4.74094 0.709512 1.56877
rclavicle 1.10325e-014 -1.80894e-014
rhumerus -35.3602 22.5808 -79.4408
rradius 100.927
rwrist 15.4048
rhand -27.3074 -28.0315
rfingers 7.12502
rthumb -0.716996 -58.01
lclavicle 1.10325e-014 -1.80894e-014
lhumerus -19.2928 -10.8024 79.5117
lradius 95.0153
lwrist 3.14682
lhand -34.3083 9.98893
lfingers 7.12502
lthumb -7.47715 39.8368
rfemur 9.41849 -4.04218 13.0625
rtibia 39.781
rfoot -30.8571 -30.9748
rtoes -36.2314
lfemur -70.1613 31.4721 -13.0808
ltibia 83.3333
lfoot -12.9798 6.25374
ltoes 1.61413
53
root -2.76665 13.87 -35.8066 9.66677 -24.1275 -11.9876
lowerback 9.77005 2.92657 3.28856
upperback -1.54276 4.52977 3.27288
thorax -7.1297 2.14944 0.889012
lowerneck -6.55383 1.08449 -2.90098
upperneck 11.8559 1.37695 3.25673
head 4.5806 0.736038 1.55821
rclavicle -8.59744e-015 -3.77691e-015
rhumerus -33.9716 23.2858 -79.1827
rradius 100.945
rwrist 16.3913
rhand -27.6109 -28.1556
rfingers 7.12502
rthumb -1.01008 -58.1329
lclavicle -8.59744e-015 -3.77691e-015
lhumerus -19.7105 -10.4245 78.9663
lradius 95.4498
lwrist 3.34207
lhand -34.6286 9.95062
lfingers 7.12502
lthumb -7.78632 39.7873
rfemur 9.20135 -3.87066 13.1009
rtibia 39.7668
rfoot -30.6945 -31.0685
rtoes -36.497
lfemur -70.9935 32.0117 -13.9379
ltibia 83.6588
lfoot -12.3181 7.58062
ltoes 1.77478
54
root -2.76308 13.8706 -35.8004 9.91547 -24.2846 -12.1333
lowerback 10.113 3.02926 3.19847
upperback -1.60566 4.67907 3.27395
thorax -7.40042 2.22076 0.896751
lowerneck -6.51905 1.10375 -2.95271
upperneck 11.479 1.42511 3.17606
head 4.45827 0.753526 1.54069
rclavicle 1.16786e-015 8.94531e-015
rhumerus -32.3363 23.9501 -78.9225
rradius 100.902
rwrist 17.1707
rhand -27.7064 -28.1905
rfingers 7.12502
rthumb -1.10233 -58.1674
lclavicle 1.16786e-015 8.94531e-015
lhumerus -20.0522 -10.0995 78.3636
lradius 95.8134
lwrist 3.57027
lhand -34.9488 10.2442
lfingers 7.12502
lthumb -8.09534 40.0692
rfemur 8.96719 -3.67798 13.2342
rtibia 39.708
rfoot -30.3304 -31.3539
rtoes -37.0051
lfemur -71.8898 32.5214 -14.869
ltibia 83.9032
lfoot -11.7778 9.10755
ltoes 2.6932
55
root -2.76052 13.869 -35.7905 10.2676 -24.4171 -12.4254
lowerback 10.4169 3.1424 3.22814
upperback -1.70794 4.85834 3.29062
thorax -7.68376 2.30134 0.849264
lowerneck -6.41448 1.11132 -2.94376
upperneck 11.1063 1.4554 3.03183
head 4.3274 0.760956 1.4922
rclavicle -1.12313e-014 -5.96354e-015
rhumerus -30.7062 24.6273 -78.6998
rradius 100.991
rwrist 17.6771
rhand -27.7524 -28.3748
rfingers 7.12502
rthumb -1.14681 -58.3514
lclavicle -1.12313e-014 -5.96354e-015
lhumerus -20.4888 -9.77157 77.7114
lradius 96.1428
lwrist 3.69063
lhand -35.1067 10.508
lfingers 7.12502
lthumb -8.24776 40.327
rfemur 8.78049 -3.32831 13.5848
rtibia 39.5542
rfoot -30.5252 -31.1643
rtoes -37.0084
lfemur -72.8723 33.0551 -15.792
ltibia 84.0754
lfoot -11.3437 10.9012
ltoes 3.66934
56
root -2.75903 13.8744 -35.7707 10.635 -24.5236 -12.6369
lowerback 10.5861 3.27942 3.22597
upperback -1.79106 5.05207 3.24097
thorax -7.86564 2.3907 0.753733
lowerneck -6.41552 1.09984 -3.01168
upperneck 10.4096 1.47095 2.94218
head 4.56959 0.750271 1.63032
rclavicle 8.00108e-015 -2.10712e-014
rhumerus -28.9031 25.2074 -78.5094
rradius 101.114
rwrist 17.9009
rhand -27.6814 -28.537
rfingers 7.12502
rthumb -1.07821 -58.514
lclavicle 8.00108e-015 -2.10712e-014
lhumerus -20.9087 -9.52476 77.0216
lradius 96.4658
lwrist 3.737
lhand -35.3549 10.9461
lfingers 7.12502
lthumb -8.48728 40.7555
rfemur 8.63779 -3.03916 13.8508
rtibia 39.2701
rfoot -30.5001 -31.1127
rtoes -36.4327
lfemur -73.7411 33.5033 -16.8021
ltibia 84.1021
lfoot -11.2504 12.784
ltoes 5.47828
